<svg viewBox="0 0 1024 1024" version="1.1" xmlns="http://www.w3.org/2000/svg" width="500" height="500"><path d="M467.299939 377.61022l0-90.190115 88.087221 0 0 90.190115L467.299939 377.61022 467.299939 377.61022zM511.320525 870.441649c97.855702 0 182.081988-35.296901 252.679883-105.893772 70.598918-70.596871 105.893772-154.824181 105.893772-252.679883s-35.295877-182.081988-105.893772-252.679883c-70.596871-70.593801-154.824181-105.893772-252.679883-105.893772s-182.081988 35.300994-252.679883 105.893772c-70.591755 70.596871-105.893772 154.824181-105.893772 252.679883s35.302017 182.081988 105.893772 252.679883C329.237513 835.145771 413.464823 870.441649 511.320525 870.441649L511.320525 870.441649zM511.320525 65.161069c123.031081 0 228.238214 43.693128 315.628564 131.083477 87.386256 87.385233 131.083477 192.592366 131.083477 315.623447 0 123.030058-43.698245 228.236168-131.083477 315.627541-87.391373 87.385233-192.597483 131.083477-315.628564 131.083477-123.030058 0-228.236168-43.698245-315.622424-131.083477C108.306728 740.105185 64.6136 634.898051 64.6136 511.869017c0-123.031081 43.693128-228.238214 131.083477-315.623447C283.083333 108.854197 388.290467 65.161069 511.320525 65.161069L511.320525 65.161069zM467.299939 736.229924 467.299939 467.802382l88.087221 0 0 268.427542L467.299939 736.229924 467.299939 736.229924zM467.299939 736.229924" fill="#bfbfbf" /></svg>