<svg viewBox="0 0 1024 1024" version="1.1" xmlns="http://www.w3.org/2000/svg" width="200" height="200"><path d="M1024 1024V62.036C1024 27.774 996.226 0 961.966 0H62.034C27.774 0 0 27.774 0 62.036V1024h1024z" fill="#B4B4B4" /><path d="M129.354 129.354h765.284v538.98H129.354z" fill="#ABCDE0" /><path d="M512 0H62.034C27.774 0 0 27.774 0 62.036V1024h512V0z" fill="#E0E0E0" /><path d="M129.354 129.354h382.642v538.98H129.354z" fill="#D6F1FF" /><path d="M175.772 777.174h672.454v109.798H175.772z" fill="#707070" /><path d="M175.772 777.174H512v109.798H175.772z" fill="#B4B4B4" /><path d="M129.354 129.354h765.284v107.794H129.354z" fill="#048F46" /><path d="M129.354 129.354h382.642v107.794H129.354z" fill="#3DDB86" /><path d="M215.416 313.594h123.17v62.694h-123.17zM215.416 421.386h123.17v62.694h-123.17zM215.416 529.178h123.17v62.694h-123.17zM403.268 313.594h405.316v62.694H403.268zM403.268 421.386h405.316v62.694H403.268zM403.268 529.178h405.316v62.694H403.268z" fill="#4386C9" /><path d="M97.008 745.828h829.962v62.694H97.008z" fill="#424242" /></svg>