<svg class="icon" width="200px" height="199.80px" viewBox="0 0 1025 1024" version="1.1" xmlns="http://www.w3.org/2000/svg"><path d="M512.142465 1.168941a509.366229 509.366229 0 0 0-510.973524 508.489523c-0.584471 283.468297 224.802049 512.873053 505.128817 514.33423 287.486533 1.461177 517.110466-224.071461 517.694936-508.489523C1024.577165 228.966403 797.802527 1.095883 512.142465 1.168941z m1.89953 957.289974C262.719587 958.75115 66.483544 761.273107 67.287191 509.073993 68.090838 261.550645 265.568882 66.337426 514.553406 66.775779c247.523348 0.438353 443.467156 197.624161 443.467156 446.097274-0.146118 248.400054-196.236043 445.220568-443.978567 445.585862zM462.462454 427.832564c0 54.940247-0.511412 109.953553 0.146118 164.893801 0.511412 36.091067 20.091181 47.85354 56.255306 46.903775 36.821655-1.022824 36.456361-22.282946 37.260008-47.999658 3.360707-96.583786 6.28306-193.24063 12.200826-289.678298 2.630118-42.374127-4.602707-63.415073-55.743894-63.415073-51.579541 0-58.666248 21.990711-55.524718 63.926484l5.406354 125.368969z m116.382731 333.00219c-6.210001 40.474597-28.492947 62.31919-67.214132 63.049779-35.87189 0.65753-61.880837-18.849181-65.022367-53.844365-3.433765-39.451773 22.867417-61.369425 61.150248-63.853426 39.232597-2.557059 61.150249 20.602593 71.086251 54.648012z" fill="#ff9d0b" /></svg>