<svg viewBox="0 0 1024 1024" version="1.1" xmlns="http://www.w3.org/2000/svg" width="200" height="200"><path d="M512 68.266667C266.24 68.266667 68.266667 266.24 68.266667 512S266.24 955.733333 512 955.733333 955.733333 757.76 955.733333 512 764.586667 68.266667 512 68.266667z" fill="#472F43" /><path d="M532.48 703.146667c0 13.653333-13.653333 20.48-20.48 20.48s-20.48-13.653333-20.48-20.48V682.666667c0-13.653333 13.653333-20.48 20.48-20.48s20.48 13.653333 20.48 20.48v20.48z m6.826667-102.4c0 13.653333-13.653333 20.48-27.306667 20.48s-20.48-6.826667-27.306667-20.48L464.213333 341.333333c0-20.48 13.653333-40.96 40.96-40.96s54.613333 20.48 54.613334 40.96v6.826667l-20.48 252.586667z" fill="#F05555" /></svg>