<svg viewBox="0 0 1024 1024" version="1.1" xmlns="http://www.w3.org/2000/svg" width="200" height="200"><path d="M350.976 761.13h322.09V640.342h201.28V157.205h-724.65v483.051h201.28v120.875zM189.952 600.086V197.44h644.096v402.645H632.704v120.747H391.211V600.085H189.952z" fill="#8a8a8a" /><path d="M942.25 111.936v800.192H81.729V111.936h860.523m22.037-60.373H59.733c-21.226 0-38.4 17.173-38.4 38.336V934.08c0 21.163 17.174 38.336 38.4 38.336h904.555a38.4 38.4 0 0 0 38.379-38.336V89.963a38.421 38.421 0 0 0-38.379-38.4z" fill="#8a8a8a" /></svg>