<svg class="icon" width="200px" height="200.00px" viewBox="0 0 1024 1024" version="1.1" xmlns="http://www.w3.org/2000/svg"><path d="M743.4 959.6L742 479.1h194.8v480.5H743.4zM884.8 570h-90.9v51.9h90.9V570z m0 103.9h-90.9v51.9h90.9v-51.9z m0 90.9h-90.9v51.9h90.9v-51.9zM66.7 959.6V479.1h194.8L260 959.6H66.7zM209.5 570h-90.9v51.9h90.9V570z m0 103.9h-90.9v51.9h90.9v-51.9z m0 90.9h-90.9v51.9h90.9v-51.9z" fill="#62bbe8" /><path d="M936.7 907.6v51.9h-870v-51.9h246.7V258.4H209.5L501.7 63.6l292.2 194.8H690v649.3h246.7zM599.1 634.9H404.3v246.7l194.1 0.8 0.7-247.5z m-97.4-335.3c-56.1 0-101.5 45.3-101.5 101.2 0 55.9 45.4 101.2 101.5 101.2s101.5-45.3 101.5-101.2c0-55.9-45.4-101.2-101.5-101.2z" fill="#ffce47" /></svg>