<svg xmlns="http://www.w3.org/2000/svg" width="500" height="500" version="1.1" viewBox="0 0 1024 1024"><path fill="#FFA200" d="M97.6 304v404.8s6.4 44.8 19.2 57.6c14.4 14.4 40 28.8 40 28.8l284.8 78.4s25.6 8 32 4.8c6.4-3.2 4.8-12.8 4.8-12.8v-456l-380.8-105.6zM918.4 304l-121.6 33.6v176l-80 20.8v-176l-182.4 49.6v419.2s-1.6 41.6 4.8 49.6c4.8 8 32-3.2 32-3.2l256-70.4s54.4-14.4 73.6-33.6c19.2-19.2 17.6-104 17.6-104v-361.6zM916.8 262.4l-387.2-107.2s-16-4.8-22.4-4.8-22.4 4.8-22.4 4.8l-120 33.6 412.8 112 139.2-38.4zM97.6 262.4l409.6 110.4 161.6-43.2-411.2-110.4-160 43.2z"/></svg>