<svg class="icon" width="200px" height="200.00px" viewBox="0 0 1024 1024" version="1.1" xmlns="http://www.w3.org/2000/svg"><path d="M73.142379 731.42881C32.73119 731.42881 0 764.16 0 804.57119s32.73119 73.142379 73.142379 73.142379c40.374379 0 73.142379-32.73119 73.142379-73.142379 0.001673-40.374379-32.73119-73.142379-73.142379-73.14238z m256-475.42881h658.284758c20.18719 0 36.57119-16.384 36.57119-36.57119s-16.384-36.57119-36.57119-36.571189H329.142379c-20.18719 0-36.57119 16.384-36.571189 36.571189S308.95519 256 329.142379 256z m-256 182.857621C32.73119 438.857621 0 471.625621 0 512c0 40.41119 32.73119 73.142379 73.142379 73.142379 40.374379 0 73.142379-32.768 73.142379-73.142379 0.001673-40.374379-32.73119-73.142379-73.142379-73.142379z m914.286431 36.571189H329.142379c-20.18719 0-36.57119 16.384-36.571189 36.57119s16.384 36.57119 36.571189 36.57119h658.284758c20.18719 0 36.57119-16.384 36.57119-36.57119 0.001673-20.18719-16.382327-36.57119-36.569517-36.57119z m0 292.57119H329.142379c-20.18719 0-36.57119 16.384-36.571189 36.57119 0 20.185516 16.384 36.569516 36.571189 36.569516h658.284758c20.18719 0 36.57119-16.384 36.57119-36.569516C1024 784.384 1007.616 768 987.42881 768zM73.142379 146.286431C32.73119 146.286431 0 179.054431 0 219.42881s32.73119 73.142379 73.142379 73.14238c40.374379 0 73.142379-32.768 73.142379-73.14238S113.553569 146.286431 73.142379 146.286431z" fill="#6ab600" /></svg>