<svg xmlns="http://www.w3.org/2000/svg" width="200" height="200" class="icon" version="1.1" viewBox="0 0 1024 1024"><path fill="#56cd83" d="M818.3 367.2L541.5 202.4c-13.2-7.2-29.1-7.2-42.2 0L222.6 373c-5.4 3.3-2.7 10.4 3.9 10.4l79.7-0.8v362.9h-28.1c-17.2 0-31.2 14-31.2 31.2s14 31.2 31.2 31.2h484.5c17.2 0 31.2-14 31.2-31.2s-14-31.2-31.2-31.2h-30.9V384.9c0-2.3-0.7-4.4-1.3-6.4l83.8-0.8c6.8-0.1 9.5-7.3 4.1-10.5zM520.4 249.3c26.5 0 48.1 21.5 48.1 48.1 0 26.5-21.5 48.1-48.1 48.1-26.5 0-48.1-21.5-48.1-48.1 0.1-26.6 21.6-48.1 48.1-48.1zM371.8 381.9l116.8-1.1c-0.3 1.4-0.8 2.7-0.8 4.1v360.5h-116V381.9z m294.5 3v360.5H553.2V384.9c0-1.7-0.6-3.2-1-4.7l115.3-1.1c-0.5 1.9-1.2 3.8-1.2 5.8z"/></svg>