<svg xmlns="http://www.w3.org/2000/svg" width="258.789" height="200" version="1.1" viewBox="0 0 1325 1024"><path fill="#ffcf1c" d="M988.485549 548.99422c0 11.83815-8.878613 19.236994-19.236994 19.236994s-19.236994-7.398844-19.236994-19.236994v-85.82659h-110.982659c-10.358382 0-19.236994-8.878613-19.236994-19.236994s8.878613-19.236994 19.236994-19.236994h110.982659v-71.028902h-110.982659c-10.358382 0-19.236994-8.878613-19.236994-19.236994 0-11.83815 8.878613-19.236994 19.236994-19.236995h110.982659v-16.277456l-110.982659-122.820809c-7.398844-8.878613-5.919075-20.716763 1.479769-28.115607 7.398844-5.919075 19.236994-5.919075 26.635838 1.479768l102.104046 113.942197 102.104046-113.942197c7.398844-7.398844 19.236994-7.398844 28.115607-1.479768 7.398844 7.398844 7.398844 19.236994 1.479769 28.115607l-112.462428 122.820809v16.277456h112.462428c10.358382 0 19.236994 7.398844 19.236994 19.236995 0 10.358382-8.878613 19.236994-19.236994 19.236994h-112.462428v71.028902h112.462428c10.358382 0 19.236994 8.878613 19.236994 19.236994s-8.878613 19.236994-19.236994 19.236994h-112.462428v85.82659zM652.578035 340.346821v16.277456c0 41.433526 7.398844 81.387283 22.196531 118.381503 0 1.479769 1.479769 1.479769 1.479769 2.959538 1.479769 4.439306 2.959538 8.878613 4.439307 11.83815l1.479768 1.479769c14.797688 32.554913 36.99422 63.630058 62.150289 90.265896 1.479769 0 1.479769 0 1.479769 1.479769h1.479769l1.479769 1.479769c0 1.479769 1.479769 1.479769 1.479769 1.479768l1.479768 1.479769 1.479769 1.479769 1.479769 1.479769 1.479769 1.479768h1.479768c0 1.479769 0 1.479769 1.479769 1.479769 0 0 0 1.479769 1.479769 1.479769v1.479769c1.479769 0 1.479769 0 1.479769 1.479769h1.479769l1.479768 1.479768 1.479769 1.479769c1.479769 0 1.479769 1.479769 1.479769 1.479769 1.479769 0 1.479769 0 1.479769 1.479769 1.479769 0 1.479769 0 1.479769 1.479769h1.479768l1.479769 1.479768c1.479769 0 1.479769 1.479769 1.479769 1.479769s1.479769 0 1.479769 1.479769h1.479769l1.479768 1.479769c1.479769 0 1.479769 1.479769 1.479769 1.479768 1.479769 0 1.479769 0 1.479769 1.479769h1.479769l1.479768 1.479769c1.479769 0 1.479769 1.479769 1.479769 1.479769 1.479769 0 1.479769 0 1.479769 1.479769h1.479769c1.479769 0 1.479769 1.479769 1.479769 1.479768 1.479769 0 1.479769 0 1.479768 1.479769h2.959538v1.479769c1.479769 0 1.479769 0 2.959538 1.479769 4.439306 2.959538 7.398844 4.439306 11.83815 7.398844 1.479769 0 1.479769 1.479769 2.959537 1.479768s1.479769 1.479769 2.959538 1.479769h1.479769c0 1.479769 1.479769 1.479769 1.479769 1.479769s1.479769 0 1.479768 1.479769h1.479769c1.479769 0 1.479769 1.479769 1.479769 1.479769h2.959537v1.479768c1.479769 0 1.479769 0 2.959538 1.479769h1.479769s1.479769 0 1.479769 1.479769h1.479768l1.479769 1.479769h1.479769c1.479769 0 1.479769 1.479769 2.959538 1.479769h1.479768s0 1.479769 1.479769 1.479768h1.479769l1.479769 1.479769h1.479768c1.479769 0 1.479769 1.479769 2.959538 1.479769s2.959538 1.479769 2.959538 1.479769h1.479768l1.479769 1.479768h1.479769c1.479769 0 1.479769 0 2.959538 1.479769h2.959537l1.479769 1.479769h2.959537c7.398844 2.959538 13.317919 4.439306 20.716763 7.398844h4.439307s1.479769 1.479769 2.959537 1.479769h4.439307c0 1.479769 1.479769 1.479769 2.959537 1.479769h4.439307c0 1.479769 1.479769 1.479769 2.959537 1.479768h4.439307c1.479769 1.479769 1.479769 1.479769 2.959537 1.479769h7.398844c0 1.479769 0 1.479769 1.479769 1.479769h10.358381c1.479769 1.479769 2.959538 1.479769 2.959538 1.479769h28.115607c88.786127 0 167.213873-35.514451 224.924855-91.745665 57.710983-57.710983 93.225434-137.618497 93.225434-224.924856 0-88.786127-35.514451-167.213873-93.225434-224.924855s-136.138728-93.225434-224.924855-93.225434c-87.306358 0-167.213873 35.514451-224.924856 93.225434-53.271676 53.271676-87.306358 127.260116-91.745664 208.647399z"/><path fill="#2a2a2a" d="M155.375723 143.537572h528.277456c10.358382-13.317919 22.196532-26.635838 34.034682-38.473988C782.797688 39.953757 871.583815 0 969.248555 0c99.144509 0 187.930636 39.953757 251.560694 105.063584 65.109827 63.630058 105.063584 152.416185 105.063583 251.560693 0 97.66474-39.953757 186.450867-105.063583 251.560694-29.595376 31.075145-66.589595 56.231214-108.023122 73.988439v187.930636c0 42.913295-17.757225 79.907514-45.872832 108.023122-26.635838 28.115607-65.109827 45.872832-106.543353 45.872832H155.375723h-1.479769c-42.913295 0-79.907514-17.757225-108.023122-45.872832-26.635838-26.635838-42.913295-62.150289-45.872832-102.104047v-2.959537-2.959538-571.190751c0-42.913295 17.757225-81.387283 45.872832-109.50289s66.589595-45.872832 109.502891-45.872833z m833.109826 405.456648c0 11.83815-8.878613 19.236994-19.236994 19.236994s-19.236994-7.398844-19.236994-19.236994v-85.82659h-110.982659c-10.358382 0-19.236994-8.878613-19.236994-19.236994s8.878613-19.236994 19.236994-19.236994h110.982659v-71.028902h-110.982659c-10.358382 0-19.236994-8.878613-19.236994-19.236994 0-11.83815 8.878613-19.236994 19.236994-19.236995h110.982659v-16.277456l-110.982659-122.820809c-7.398844-8.878613-5.919075-20.716763 1.479769-28.115607 7.398844-5.919075 19.236994-5.919075 26.635838 1.479768l102.104046 113.942197 102.104046-113.942197c7.398844-7.398844 19.236994-7.398844 28.115607-1.479768 7.398844 7.398844 7.398844 19.236994 1.479769 28.115607l-112.462428 122.820809v16.277456h112.462428c10.358382 0 19.236994 7.398844 19.236994 19.236995 0 10.358382-8.878613 19.236994-19.236994 19.236994h-112.462428v71.028902h112.462428c10.358382 0 19.236994 8.878613 19.236994 19.236994s-8.878613 19.236994-19.236994 19.236994h-112.462428v85.82659zM652.578035 340.346821v16.277456c0 41.433526 7.398844 81.387283 22.196531 118.381503 0 1.479769 1.479769 1.479769 1.479769 2.959538 1.479769 4.439306 2.959538 8.878613 4.439307 11.83815l1.479768 1.479769c14.797688 32.554913 36.99422 63.630058 62.150289 90.265896 1.479769 0 1.479769 0 1.479769 1.479769h1.479769l1.479769 1.479769c0 1.479769 1.479769 1.479769 1.479769 1.479768l1.479768 1.479769 1.479769 1.479769 1.479769 1.479769 1.479769 1.479768h1.479768c0 1.479769 0 1.479769 1.479769 1.479769 0 0 0 1.479769 1.479769 1.479769v1.479769c1.479769 0 1.479769 0 1.479769 1.479769h1.479769l1.479768 1.479768 1.479769 1.479769c1.479769 0 1.479769 1.479769 1.479769 1.479769 1.479769 0 1.479769 0 1.479769 1.479769 1.479769 0 1.479769 0 1.479769 1.479769h1.479768l1.479769 1.479768c1.479769 0 1.479769 1.479769 1.479769 1.479769s1.479769 0 1.479769 1.479769h1.479769l1.479768 1.479769c1.479769 0 1.479769 1.479769 1.479769 1.479768 1.479769 0 1.479769 0 1.479769 1.479769h1.479769l1.479768 1.479769c1.479769 0 1.479769 1.479769 1.479769 1.479769 1.479769 0 1.479769 0 1.479769 1.479769h1.479769c1.479769 0 1.479769 1.479769 1.479769 1.479768 1.479769 0 1.479769 0 1.479768 1.479769h2.959538v1.479769c1.479769 0 1.479769 0 2.959538 1.479769 4.439306 2.959538 7.398844 4.439306 11.83815 7.398844 1.479769 0 1.479769 1.479769 2.959537 1.479768s1.479769 1.479769 2.959538 1.479769h1.479769c0 1.479769 1.479769 1.479769 1.479769 1.479769s1.479769 0 1.479768 1.479769h1.479769c1.479769 0 1.479769 1.479769 1.479769 1.479769h2.959537v1.479768c1.479769 0 1.479769 0 2.959538 1.479769h1.479769s1.479769 0 1.479769 1.479769h1.479768l1.479769 1.479769h1.479769c1.479769 0 1.479769 1.479769 2.959538 1.479769h1.479768s0 1.479769 1.479769 1.479768h1.479769l1.479769 1.479769h1.479768c1.479769 0 1.479769 1.479769 2.959538 1.479769s2.959538 1.479769 2.959538 1.479769h1.479768l1.479769 1.479768h1.479769c1.479769 0 1.479769 0 2.959538 1.479769h2.959537l1.479769 1.479769h2.959537c7.398844 2.959538 13.317919 4.439306 20.716763 7.398844h4.439307s1.479769 1.479769 2.959537 1.479769h4.439307c0 1.479769 1.479769 1.479769 2.959537 1.479769h4.439307c0 1.479769 1.479769 1.479769 2.959537 1.479768h4.439307c1.479769 1.479769 1.479769 1.479769 2.959537 1.479769h7.398844c0 1.479769 0 1.479769 1.479769 1.479769h10.358381c1.479769 1.479769 2.959538 1.479769 2.959538 1.479769h28.115607c88.786127 0 167.213873-35.514451 224.924855-91.745665 57.710983-57.710983 93.225434-137.618497 93.225434-224.924856 0-88.786127-35.514451-167.213873-93.225434-224.924855s-136.138728-93.225434-224.924855-93.225434c-87.306358 0-167.213873 35.514451-224.924856 93.225434-53.271676 53.271676-87.306358 127.260116-91.745664 208.647399zM38.473988 492.763006h602.265896l-13.317919-35.514451v-2.959538s0-1.479769-1.479768-1.479768v-2.959538-1.479769l-1.479769-1.479769v-2.959537-1.479769c-1.479769-1.479769-1.479769-1.479769-1.479769-2.959538v-1.479768-1.479769c-1.479769-1.479769-1.479769-2.959538-1.479769-2.959538v-1.479768-2.959538c-1.479769 0-1.479769-1.479769-1.479769-1.479769v-4.439306c0-1.479769 0-1.479769-1.479768-2.959538v-1.479769-4.439306c0-1.479769-1.479769-1.479769-1.479769-2.959537v-1.479769-4.439307-2.959537l-1.479769-1.479769v-4.439306-4.439307-2.959537l-1.479769-1.479769v-4.439306-4.439307-4.439306-4.439306-4.439307-4.439306-4.439307-4.439306-5.919075-4.439306-4.439307-4.439306-2.959538-1.479768-2.959538l1.479769-1.479769v-2.959537-2.959538-1.479769-2.959537c5.919075-47.352601 20.716763-91.745665 42.913295-131.699422H155.375723c-32.554913 0-60.67052 13.317919-82.867052 34.034682-20.716763 22.196532-34.034682 50.312139-34.034683 82.867052v193.849711z m1035.838151 204.208092c-28.115607 8.878613-56.231214 13.317919-87.306359 14.797688h-8.878612l96.184971-14.797688z m-102.104047 14.797688h-17.757225-7.398844-1.479769-4.439306-2.959538l-1.479768-1.479769h-2.959538-4.439306-2.959538c-1.479769 0-2.959538 0-2.959537-1.479768h-5.919076c-29.595376-4.439306-57.710983-11.83815-84.34682-23.676301-4.439306-1.479769-8.878613-2.959538-11.838151-4.439306v-1.479769h-2.959537l-1.479769-1.479769c-1.479769 0-4.439306-1.479769-7.398844-2.959538h-1.479769c0-1.479769-1.479769-1.479769-1.479769-1.479768l-1.479768-1.479769s-1.479769 0-2.959538-1.479769c-1.479769 0-2.959538-1.479769-4.439306-2.959537-1.479769 0-2.959538 0-2.959538-1.479769h-1.479769l-1.479768-1.479769h-1.479769c-1.479769-1.479769-4.439306-2.959538-7.398844-4.439306v-1.479769h-2.959538c0-1.479769 0-1.479769-1.479768-1.479769l-1.479769-1.479769h-1.479769c0-1.479769-1.479769-1.479769-2.959538-2.959537h-1.479768c0-1.479769-1.479769-1.479769-1.479769-1.479769l-1.479769-1.479769s-1.479769 0-1.479769-1.479769h-1.479769c-1.479769-1.479769-1.479769-1.479769-2.959537-1.479768 0-1.479769-1.479769-1.479769-1.479769-1.479769l-1.479769-1.479769c-1.479769 0-1.479769-1.479769-1.479769-1.479769-1.479769 0-1.479769 0-1.479768-1.479769-1.479769 0-1.479769 0-1.479769-1.479768h-1.479769c-1.479769-1.479769-2.959538-1.479769-2.959537-2.959538h-1.479769c0-1.479769-1.479769-1.479769-1.479769-1.479769l-1.479769-1.479769c-1.479769 0-1.479769-1.479769-1.479769-1.479768-1.479769 0-1.479769-1.479769-1.479768-1.479769-1.479769 0-1.479769-1.479769-2.959538-1.479769v-1.479769c-1.479769 0-1.479769-1.479769-2.959538-1.479768 0 0-1.479769 0-1.479768-1.479769 0 0-1.479769 0-1.479769-1.479769h-1.479769c0-1.479769-1.479769-1.479769-1.479769-2.959538h-1.479768c0-1.479769-1.479769-1.479769-2.959538-2.959537l-2.959538-2.959538c-1.479769-1.479769-1.479769-1.479769-1.479768-2.959537h-1.479769l-2.959538-2.959538-2.959537-2.959537-2.959538-2.959538c-1.479769-1.479769-1.479769-2.959538-2.959537-2.959538-1.479769-1.479769-1.479769-2.959538-2.959538-2.959537v-1.479769c-1.479769 0-1.479769-1.479769-2.959538-1.479769v-1.479769c-1.479769 0-1.479769-1.479769-2.959537-2.959537 0-1.479769-1.479769-1.479769-1.479769-2.959538h-1.479769c0-1.479769-1.479769-1.479769-1.479769-2.959537h-1.479768c0-1.479769-1.479769-2.959538-1.479769-2.959538l-1.479769-1.479769s0-1.479769-1.479769-1.479768v-1.479769c-1.479769 0-1.479769-1.479769-2.959537-2.959538s-1.479769-1.479769-1.479769-2.959537l-1.479769-1.479769-1.479769-1.479769-1.479768-1.479769c0-1.479769 0-1.479769-1.479769-1.479768v-2.959538c-1.479769 0-1.479769 0-1.479769-1.479769-1.479769 0-1.479769-1.479769-1.479769-1.479769l-1.479769-1.479768c0-1.479769-1.479769-1.479769-1.479768-1.479769v-1.479769l-2.959538-2.959538v-1.479768s-1.479769-1.479769-1.479769-2.959538h-1.479768c0-1.479769 0-1.479769-1.479769-2.959537v-1.479769c-1.479769-2.959538-4.439306-5.919075-5.919075-10.358382H38.473988v340.346821c1.479769 31.075145 13.317919 59.190751 34.034683 79.907514s50.312139 34.034682 81.387283 34.034683h804.994219c32.554913 0 60.67052-13.317919 81.387284-34.034683 20.716763-22.196532 34.034682-50.312139 34.034682-82.867052V696.971098l-102.104047 14.797688z m7.398844 0h-7.398844 7.398844z"/></svg>