<svg xmlns="http://www.w3.org/2000/svg" width="200" height="200" version="1.1" viewBox="0 0 1024 1024"><path fill="#0FA1ED" d="M915.512902 356.771224v-46.60959c0-51.360656-41.694695-93.055351-93.05535-93.055351h-620.915104c-51.360656 0-93.055351 41.694695-93.05535 93.055351v46.60959h807.025804z"/><path fill="#4EB7EE" d="M108.487098 434.427593v279.411797c0 51.360656 41.61278 93.055351 93.05535 93.055351h620.915104c51.360656 0 93.055351-41.694695 93.05535-93.055351v-279.411797h-807.025804z m729.452374 264.010768c0 8.519152-6.880853 15.31809-15.318091 15.31809h-93.464925c-8.519152 0-15.31809-6.880853-15.31809-15.31809v-62.41917c0-8.519152 6.880853-15.31809 15.31809-15.31809h93.464925c8.519152 0 15.31809 6.880853 15.318091 15.31809v62.41917z"/></svg>