<svg xmlns="http://www.w3.org/2000/svg" width="200" height="200" version="1.1" viewBox="0 0 1024 1024"><path fill="#484848" d="M74.843383 960.642623L320.169043 715.573212a37.155995 37.155995 0 1 1 52.594951 52.56292l-128.764741 128.636617H780.134634l-128.796771-128.636617a37.155995 37.155995 0 1 1 52.626982-52.56292l245.293628 245.069411a37.059902 37.059902 0 0 1 0 52.466827 37.155995 37.155995 0 0 1-52.56292 0l-54.676969-52.594952H182.051241l-54.612906 52.594952a37.252088 37.252088 0 0 1-52.626983 0 37.027871 37.027871 0 0 1 0.032031-52.466827z"/><path fill="#BF392C" d="M191.116023 0h640.620601a64.06206 64.06206 0 0 1 64.06206 64.06206v704.682661a64.06206 64.06206 0 0 1-64.06206 64.062061h-640.620601a64.06206 64.06206 0 0 1-64.062061-64.062061V64.06206a64.06206 64.06206 0 0 1 64.062061-64.06206z"/><path fill="#FFF" d="M191.116023 192.18618h640.620601v352.341331h-640.620601V192.18618z"/><path fill="#F0F0F0" d="M191.180085 191.033063h320.246238V544.847821H191.180085V191.033063z"/><path fill="#EBEBEB" d="M351.271173 64.06206h320.310301v64.06206h-320.310301V64.06206z"/><path fill="#FFF" d="M191.116023 736.713691h192.18618v-128.12412h-192.18618v128.12412z m448.43442-128.12412v128.12412h192.186181v-128.12412h-192.186181z"/><path fill="#F4B459" d="M223.147053 704.682661h128.12412v-64.126122h-128.12412V704.682661z m448.434421-64.126122V704.682661h128.12412v-64.126122h-128.12412z"/></svg>