<svg xmlns="http://www.w3.org/2000/svg" width="200" height="200" version="1.1" viewBox="0 0 1024 1024"><path fill="#1296db" d="M893.6 272L527 63.2a30 30 0 0 0-30 0L130.4 272a30 30 0 0 0-15 25.8v423a30 30 0 0 0 15 25.8l366.6 211.8a30 30 0 0 0 30 0L893.6 752a30 30 0 0 0 15-25.8v-180a30 30 0 0 0-60 0v144l-165-96.6V421.4a15 15 0 0 0-7.2-13.2L527 322.4V132.2l321.6 185.4v79.8a30 30 0 0 0 60 0V300.2a30 30 0 0 0-15-28.2z m-396.6 48L355.4 404 190.4 309.2l306.6-177z m-321.6 12.6l165 97.8v163.2l-165 95.4z m15 379.8L355.4 620l141.6 81.6v190.2z m480-94.8l164.4 94.8-307.8 179.4v-190.2z m-15-25.8L512 675.8 370.4 593.6V430.4L512 348.2l141.6 81.6z"/></svg>