<svg viewBox="0 0 1024 1024" version="1.1" xmlns="http://www.w3.org/2000/svg" width="500" height="500"><path d="M512 908.8c-219.136 0-397.312-178.176-397.312-397.312S292.864 114.176 512 114.176s397.312 178.176 397.312 397.312-178.176 397.312-397.312 397.312z m0-753.152c-196.608 0-356.352 159.744-356.352 356.352 0 196.608 159.744 356.352 356.352 356.352 196.608 0 356.352-159.744 356.352-356.352 0-196.608-159.744-356.352-356.352-356.352z" fill="#8a8a8a" /><path d="M512 727.04c-11.264 0-20.48-9.216-20.48-20.48V440.832c0-11.264 9.216-20.48 20.48-20.48s20.48 9.216 20.48 20.48V706.56c0 11.776-9.216 20.48-20.48 20.48z" fill="#8a8a8a" /><path d="M512 351.232m-25.6 0a25.6 25.6 0 1 0 51.2 0 25.6 25.6 0 1 0-51.2 0Z" fill="#8a8a8a" /></svg>