<svg viewBox="0 0 1024 1024" version="1.1" xmlns="http://www.w3.org/2000/svg" width="128" height="128"><path d="M511.8342991 725.33990717c-0.00388361 0-0.00776723 0-0.01035631 0-11.82819618 0-22.49778062-4.95678704-30.04623328-12.90654658l-325.28769328-343.84748847c-7.00992475-7.40475891-11.31814811-17.4296633-11.31944263-28.45912937 0-22.88484757 18.55073342-41.43558099 41.43558098-41.43558099 11.85408695 0 22.54567854 4.97749965 30.09801483 12.95703356l295.21298014 312.11706089 295.4447025-312.09764282c7.57952158-7.98082845 18.26981863-12.94667725 30.11872742-12.94667725 11.02428791 0 21.04401413 4.29786706 28.4772529 11.30908635 16.54937726 15.7221673 17.29503131 41.9870543 1.63629638 58.55584963l-325.60226608 343.82936495c-7.56528165 7.96788306-18.2348661 12.9246701-30.06306228 12.9246701-0.03236347 0-0.06602144 0-0.0983849 0z" fill="#B1B1B1" /></svg>