<svg viewBox="0 0 1024 1024" version="1.1" xmlns="http://www.w3.org/2000/svg" width="200" height="200"><path d="M356.628862 638.396735c-5.815449 41.612747-21.763676 74.233702-47.844681 97.869005-26.084075 23.635303-59.08877 35.453467-99.016131 35.453467-46.50722 0-83.566254-16.022928-111.178125-48.073902-27.614941-32.04688-41.419342-75.227332-41.419342-129.536238 0-54.304813 14.34266-97.559966 43.025932-129.764436 28.683273-32.201399 67.195402-48.304146 115.53741-48.304146 38.092573 0 69.375044 9.792017 93.853551 29.371958 24.474414 19.584034 39.159882 46.581921 44.058448 81.002872l-44.058448 0c-4.285606-22.333658-14.650675-39.58353-31.093159-51.745525s-37.5932-18.243503-63.444984-18.243503c-33.81106 0-60.734246 12.431124-80.773651 37.289278-20.039405 24.861224-30.057573 58.325383-30.057573 100.392478 0 44.671409 9.290597 78.70862 27.876907 102.113679 18.587334 23.406083 45.549406 35.109636 80.887238 35.109636 26.1598 0 47.880497-8.067746 65.166185-24.208355 17.285688-16.138562 28.758997-39.046295 34.420951-68.726268L356.628862 638.396735z" fill="#1296db" /><path d="M416.291706 762.539126 416.291706 425.218518l246.680239 0 0 20.192901 0 20.192901L461.955722 465.60432l0 103.032608 183.576015 0 0 20.192901 0 20.192901L461.955722 609.022731l0 113.128547 203.539696 0 0 20.192901 0 20.192901L416.291706 762.53708z" fill="#1296db" /><path d="M810.060955 465.605344 696.014502 465.605344l0-20.192901 0-20.192901 273.756921 0 0 20.192901 0 20.192901L855.72497 465.605344l0 296.933783-22.717398 0-22.946618 0L810.060955 465.605344z" fill="#1296db" /></svg>