<svg class="icon" viewBox="0 0 1024 1024" xmlns="http://www.w3.org/2000/svg" width="200" height="200"><path d="M62 536.641v355.531l43.216-17.286L252.722 727.38zM294.759 209.71l-55.63-55.63L62 224.931v70.324l232.759 232.759z" fill="#D6C990"/><path d="M512 468.102V426.95L294.759 209.709v318.305l78.657 78.657z" fill="#F7E6A1"/><path d="M512 745.255v-35.767l-17.876 17.891z" fill="#7383BF"/><path d="M653.269 568.219L512 709.488v35.767l102.848 102.848 114.393-49.034V644.191z" fill="#6472A0"/><path d="M729.241 250.86V131.828L539.56 213.122l113.71 113.71zM532.576 447.526L512 426.95v41.152z" fill="#D6C990"/><path d="M810.397 169.705l-81.156-37.877V250.86z" fill="#F7E6A1"/><path d="M962 635.564V259.488L773.962 447.526zM729.241 799.069L962 892.172V876.95L729.241 644.191z" fill="#7383BF"/><path d="M294.759 685.343v-157.33L62 295.256v241.386L252.722 727.38z" fill="#D1AF43"/><path d="M384.122 837.366L512 892.172V745.255l-17.876-17.876zM294.76 528.014v157.33l78.657-78.673z" fill="#EFCE4A"/><path d="M512 892.172l102.848-44.069L512 745.255zM294.759 131.828l-55.63 22.251 55.63 55.63z" fill="#D1AF43"/><path d="M512 224.931l-217.241-93.103v77.88L512 426.95z" fill="#EFCE4A"/><path d="M512 426.95l20.576 20.576 120.693-120.693-113.71-113.71L512 224.93zm217.241 217.241V492.247l-75.972 75.972z" fill="#D1AF43"/><path d="M773.962 447.526l-44.72 44.72v151.945L962 876.95V635.564z" fill="#EFCE4A"/><path d="M294.759 769.4l-42.037-42.02-147.506 147.506 189.543-75.817z" fill="#D1AF43"/><path d="M294.759 799.069l51.905 22.252-51.905-51.921zm78.657-192.398l120.708 120.708L512 709.488V468.102z" fill="#EFCE4A"/><path d="M729.241 250.86l-75.972 75.973 75.972 75.972zM512 468.102v241.386l141.269-141.269-120.693-120.693z" fill="#D1AF43"/><path d="M729.241 402.805l44.721 44.72L962 259.489v-19.04l-151.603-70.743-81.156 81.155z" fill="#EFCE4A"/><path d="M252.722 727.38l42.037 42.02v-84.057z" fill="#D1AF43"/><path d="M373.416 606.67l-78.657 78.673V769.4l51.905 51.92 37.458 16.046 110.002-109.987z" fill="#EFCE4A"/><path d="M653.269 326.833L532.576 447.526l120.693 120.693 75.972-75.972v-89.442z" fill="#D1AF43"/><path d="M729.241 492.247l44.721-44.721-44.72-44.72z" fill="#EFCE4A"/></svg>