<svg class="icon" viewBox="0 0 1024 1024" xmlns="http://www.w3.org/2000/svg" width="200" height="200"><path d="M62 512a450 450 0 10900 0 450 450 0 10-900 0z" fill="#FCF4C6"/><path d="M512 92c231.6 0 420 188.4 420 420S743.6 932 512 932 92 743.6 92 512 280.4 92 512 92m0-60C246.875 32 32 246.875 32 512s214.875 480 480 480 480-214.875 480-480S777.125 32 512 32z" fill="#F4CD03"/><path d="M399.8 529.7L287.525 420.35l155.1-22.575L512 257.225l69.375 140.55 155.1 22.575L624.2 529.7l26.55 154.5L512 611.225 373.25 684.2z" fill="#FFFF04"/><path d="M512 291.125l52.425 106.2L571.4 411.5l15.6 2.25 117.225 17.025L619.4 513.5l-11.325 11.025 2.7 15.525L630.8 656.825 525.95 601.7 512 594.35l-13.95 7.35-104.85 55.05 20.025-116.775 2.7-15.525-11.325-11.025-84.825-82.65L437 413.75l15.6-2.25 6.975-14.175L512 291.125m0-67.8L432.65 384.05l-177.375 25.8L383.6 534.95l-30.3 176.625 158.7-83.4 158.625 83.4-30.3-176.625 128.325-125.1-177.375-25.8L512 223.325z" fill="#F0CA03"/></svg>