<svg xmlns="http://www.w3.org/2000/svg" width="200" height="200" viewBox="0 0 1024 1024"><path fill="#E57E25" d="M0 512a512 512 0 101024 0A512 512 0 100 512z"/><path fill="#38454F" d="M13.33 552.01c66.213-63.233 175.068-83.31 253.312-46.776a963.877 963.877 0 00-149.12 333.148c8.613 10.404 17.7 20.37 27.1 30.043a17.829 17.829 0 005.412-9.198 926.848 926.848 0 01147.657-334.555c46.72 36.26 69.65 95.945 64.458 172.526l-.074.987.037 1.006c4.59 110.866 68.498 212.315 170.935 271.342a349.641 349.641 0 0099.95 38.93 508.47 508.47 0 0087.478-29.879c-55.753 4.315-114.779-9.399-169.179-40.74-91.227-52.572-148.206-142.3-152.613-240.202 7.223-110.884-36.717-171.41-79.067-203.794a937.509 937.509 0 0188.832-100.352 4017.371 4017.371 0 01367.104 389.723l78.866 95.946 28.252-23.242-78.867-95.945a4053.65 4053.65 0 00-368.64-391.607 935.735 935.735 0 0179.964-64.786c43.703 55.241 113.975 82.304 201.801 76.526 82.633 3.748 160.183 48.731 212.9 123.502 40.997 58.148 61.861 127.305 59.777 191.817a508.709 508.709 0 0025.91-92.032 369.737 369.737 0 00-55.79-120.85c-59.52-84.426-147.821-135.095-242.248-139.009l-1.006-.036-.988.073c-74.422 5.01-133.376-16.658-169.965-61.074a926.72 926.72 0 01313.691-133.486 17.865 17.865 0 009.106-5.522 511.305 511.305 0 00-29.97-27.008 963.163 963.163 0 00-312.85 135.442c-35.584-71.46-23.132-171.886 30.482-240.805l7.442-9.563A518.839 518.839 0 00512 0v11.227c-50.725 80.293-58.277 184.85-16.933 262.784a976.165 976.165 0 00-86.912 70.528A4035.127 4035.127 0 00224.33 185.93l-60.617-49.079a513.543 513.543 0 00-26.039 26.003l63.653 51.529A3990.73 3990.73 0 01381.53 369.755a975.323 975.323 0 00-92.982 105.546c-2.085-1.061-4.206-2.158-6.2-3.09C195.622 431.597 81.555 448.62 3.475 512H0c0 17.006.878 33.792 2.487 50.359l10.843-10.35z"/></svg>