<svg xmlns="http://www.w3.org/2000/svg" viewBox="0 0 48 48"><defs><style>.cls-1{fill:#d3b771;opacity:0}.cls-2{fill:#c5cfd1}.cls-3{fill:#81d4fa}</style></defs><title>14</title><g id="图层_2" data-name="图层 2"><g id="图层_1-2" data-name="图层 1"><rect width="48" height="48" class="cls-1"/><path d="M36,16a9.77,9.77,0,0,0-1.89.19,16,16,0,1,0-15.71,19H36A9.6,9.6,0,0,0,36,16Z" class="cls-2"/><circle cx="24.8" cy="41.2" r=".98" class="cls-3"/><rect width="1.96" height="2.93" x="23.82" y="36.8" class="cls-3" rx=".98" ry=".98"/><rect width="1.96" height="2.93" x="23.82" y="42.67" class="cls-3" rx=".98" ry=".98"/><rect width="1.96" height="2.93" x="21.28" y="38.27" class="cls-3" rx=".98" ry=".98" transform="translate(-23.28 39.14) rotate(-60)"/><rect width="1.96" height="2.93" x="26.36" y="41.2" class="cls-3" rx=".98" ry=".98" transform="translate(-23.28 45.01) rotate(-60)"/><rect width="1.96" height="2.93" x="21.28" y="41.2" class="cls-3" rx=".98" ry=".98" transform="translate(-3.56 83.28) rotate(-120)"/><rect width="1.96" height="2.93" x="26.36" y="38.27" class="cls-3" rx=".98" ry=".98" transform="translate(6.6 83.28) rotate(-120)"/></g></g></svg>