<svg xmlns="http://www.w3.org/2000/svg" viewBox="0 0 48 48"><defs><style>.cls-1{fill:#d3b771;opacity:0;}.cls-2{fill:#c5cfd1;}.cls-3{fill:#81d4fa;}</style></defs><title>16</title><g id="图层_2" data-name="图层 2"><g id="图层_1-2" data-name="图层 1"><rect class="cls-1" width="48" height="48"/><path class="cls-2" d="M36,16a9.77,9.77,0,0,0-1.89.19,16,16,0,1,0-15.71,19H36A9.6,9.6,0,0,0,36,16Z"/><circle class="cls-3" cx="12.8" cy="41.2" r="0.98"/><rect class="cls-3" x="11.82" y="36.8" width="1.96" height="2.93" rx="0.98" ry="0.98"/><rect class="cls-3" x="11.82" y="42.67" width="1.96" height="2.93" rx="0.98" ry="0.98"/><rect class="cls-3" x="9.28" y="38.27" width="1.96" height="2.93" rx="0.98" ry="0.98" transform="translate(-29.28 28.75) rotate(-60)"/><rect class="cls-3" x="14.36" y="41.2" width="1.96" height="2.93" rx="0.98" ry="0.98" transform="translate(-29.28 34.62) rotate(-60)"/><rect class="cls-3" x="9.28" y="41.2" width="1.96" height="2.93" rx="0.98" ry="0.98" transform="translate(-21.56 72.89) rotate(-120)"/><rect class="cls-3" x="14.36" y="38.27" width="1.96" height="2.93" rx="0.98" ry="0.98" transform="translate(-11.4 72.89) rotate(-120)"/><circle class="cls-3" cx="24" cy="41.2" r="0.98"/><rect class="cls-3" x="23.02" y="36.8" width="1.96" height="2.93" rx="0.98" ry="0.98"/><rect class="cls-3" x="23.02" y="42.67" width="1.96" height="2.93" rx="0.98" ry="0.98"/><rect class="cls-3" x="20.48" y="38.27" width="1.96" height="2.93" rx="0.98" ry="0.98" transform="translate(-23.68 38.45) rotate(-60)"/><rect class="cls-3" x="25.56" y="41.2" width="1.96" height="2.93" rx="0.98" ry="0.98" transform="translate(-23.68 44.32) rotate(-60)"/><rect class="cls-3" x="20.48" y="41.2" width="1.96" height="2.93" rx="0.98" ry="0.98" transform="translate(-4.76 82.58) rotate(-120)"/><rect class="cls-3" x="25.56" y="38.27" width="1.96" height="2.93" rx="0.98" ry="0.98" transform="translate(5.4 82.58) rotate(-120)"/><circle class="cls-3" cx="35.2" cy="41.2" r="0.98"/><rect class="cls-3" x="34.22" y="36.8" width="1.96" height="2.93" rx="0.98" ry="0.98"/><rect class="cls-3" x="34.22" y="42.67" width="1.96" height="2.93" rx="0.98" ry="0.98"/><rect class="cls-3" x="31.68" y="38.27" width="1.96" height="2.93" rx="0.98" ry="0.98" transform="translate(-18.08 48.15) rotate(-60)"/><rect class="cls-3" x="36.76" y="41.2" width="1.96" height="2.93" rx="0.98" ry="0.98" transform="translate(-18.08 54.02) rotate(-60)"/><rect class="cls-3" x="31.68" y="41.2" width="1.96" height="2.93" rx="0.98" ry="0.98" transform="translate(12.04 92.28) rotate(-120)"/><rect class="cls-3" x="36.76" y="38.27" width="1.96" height="2.93" rx="0.98" ry="0.98" transform="translate(22.2 92.28) rotate(-120)"/></g></g></svg>