<svg xmlns="http://www.w3.org/2000/svg" viewBox="0 0 48 48"><defs><style>.cls-1{fill:#d3b771;opacity:0;}.cls-2{fill:#81d4fa;}.cls-3{fill:#c5cfd1;}</style></defs><title>19</title><g id="图层_2" data-name="图层 2"><g id="图层_1-2" data-name="图层 1"><rect class="cls-1" width="48" height="48"/><path class="cls-2" d="M19.6,41.49h0A1.61,1.61,0,0,1,19,39.3l1-1.7A1.6,1.6,0,0,1,22.17,37h0a1.6,1.6,0,0,1,.59,2.18l-1,1.7A1.6,1.6,0,0,1,19.6,41.49Z"/><path class="cls-2" d="M26.55,41.49h0A1.61,1.61,0,0,1,26,39.3l1-1.7A1.6,1.6,0,0,1,29.12,37h0a1.6,1.6,0,0,1,.59,2.18l-1,1.7A1.6,1.6,0,0,1,26.55,41.49Z"/><path class="cls-3" d="M36,16a9.77,9.77,0,0,0-1.89.19,16,16,0,1,0-15.71,19H36A9.6,9.6,0,0,0,36,16Z"/><circle class="cls-2" cx="18.13" cy="44" r="1.6"/><circle class="cls-2" cx="25.08" cy="44" r="1.6"/></g></g></svg>