<svg xmlns="http://www.w3.org/2000/svg" viewBox="0 0 48 48"><defs><style>.cls-1,.cls-2{fill:#d3b771;}.cls-1{opacity:0;}.cls-3{fill:#c6a26a;}</style></defs><title>20</title><g id="图层_2" data-name="图层 2"><g id="图层_1-2" data-name="图层 1"><rect class="cls-1" width="48" height="48"/><path class="cls-2" d="M5.18,23.17a1.22,1.22,0,0,1,0-2.43,199.78,199.78,0,0,0,22.08-3.85c5.62-1.43,5.58-7.86-2-7.62a1.22,1.22,0,0,1-1-2.12c2.79-2.26,9.16-5.74,15.52-1.68C47.83,10.59,48.2,29,5.18,23.17Z"/><path class="cls-2" d="M5.15,28a1.2,1.2,0,0,0,0,2.39c5.42.6,12.54,1.07,17.11,3.49,3.86,2.06,3.21,7.08-2.4,7.06-1.33,0-1.91,1.45-.87,2.18,2.42,1.67,9.44,1.85,12.82-.31C38.21,38.76,39.61,23.09,5.15,28Z"/><ellipse class="cls-3" cx="38.21" cy="16.84" rx="1.59" ry="1.62"/><ellipse class="cls-3" cx="37.42" cy="7.91" rx="0.8" ry="0.81"/><ellipse class="cls-3" cx="27.07" cy="20.9" rx="1.59" ry="1.62"/><ellipse class="cls-3" cx="19.91" cy="29.01" rx="0.8" ry="0.81"/><ellipse class="cls-3" cx="19.12" cy="20.9" rx="0.8" ry="0.81"/><ellipse class="cls-3" cx="27.87" cy="37.13" rx="0.8" ry="0.81"/><ellipse class="cls-3" cx="26.28" cy="31.45" rx="0.8" ry="0.81"/><ellipse class="cls-3" cx="27.07" cy="41.19" rx="0.8" ry="0.81"/><ellipse class="cls-3" cx="33.84" cy="8.31" rx="1.19" ry="1.22"/><ellipse class="cls-3" cx="31.85" cy="37.94" rx="1.59" ry="1.62"/><ellipse class="cls-3" cx="32.64" cy="17.65" rx="0.8" ry="0.81"/><ellipse class="cls-3" cx="40.6" cy="11.15" rx="0.8" ry="0.81"/></g></g></svg>