<svg xmlns="http://www.w3.org/2000/svg" viewBox="0 0 48 48"><defs><style>.cls-1{fill:#d3b771;opacity:0;}.cls-2{fill:#c5cfd1;}.cls-3{fill:#81d4fa;}</style></defs><title>26</title><g id="图层_2" data-name="图层 2"><g id="图层_1-2" data-name="图层 1"><rect class="cls-1" width="48" height="48"/><path class="cls-2" d="M36,16a9.77,9.77,0,0,0-1.89.19,16,16,0,1,0-15.71,19H36A9.6,9.6,0,0,0,36,16Z"/><circle class="cls-3" cx="17.6" cy="41.2" r="0.98"/><rect class="cls-3" x="16.62" y="36.8" width="1.96" height="2.93" rx="0.98" ry="0.98"/><rect class="cls-3" x="16.62" y="42.67" width="1.96" height="2.93" rx="0.98" ry="0.98"/><rect class="cls-3" x="14.08" y="38.27" width="1.96" height="2.93" rx="0.98" ry="0.98" transform="translate(-26.88 32.91) rotate(-60)"/><rect class="cls-3" x="19.16" y="41.2" width="1.96" height="2.93" rx="0.98" ry="0.98" transform="translate(-26.88 38.78) rotate(-60)"/><rect class="cls-3" x="14.08" y="41.2" width="1.96" height="2.93" rx="0.98" ry="0.98" transform="translate(-14.36 77.04) rotate(-120)"/><rect class="cls-3" x="19.16" y="38.27" width="1.96" height="2.93" rx="0.98" ry="0.98" transform="matrix(-0.5, -0.87, 0.87, -0.5, -4.2, 77.04)"/><circle class="cls-3" cx="30.4" cy="41.2" r="0.98"/><rect class="cls-3" x="29.42" y="36.8" width="1.96" height="2.93" rx="0.98" ry="0.98"/><rect class="cls-3" x="29.42" y="42.67" width="1.96" height="2.93" rx="0.98" ry="0.98"/><rect class="cls-3" x="26.88" y="38.27" width="1.96" height="2.93" rx="0.98" ry="0.98" transform="translate(-20.48 43.99) rotate(-60)"/><rect class="cls-3" x="31.96" y="41.2" width="1.96" height="2.93" rx="0.98" ry="0.98" transform="translate(-20.48 49.86) rotate(-60)"/><rect class="cls-3" x="26.88" y="41.2" width="1.96" height="2.93" rx="0.98" ry="0.98" transform="translate(4.84 88.13) rotate(-120)"/><rect class="cls-3" x="31.96" y="38.27" width="1.96" height="2.93" rx="0.98" ry="0.98" transform="translate(15 88.13) rotate(-120)"/></g></g></svg>