<svg xmlns="http://www.w3.org/2000/svg" width="200" height="200" viewBox="0 0 1024 1024"><path fill="#1296db" d="M893.6 272L527 63.2a30 30 0 00-30 0L130.4 272a30 30 0 00-15 25.8v423a30 30 0 0015 25.8L497 958.4a30 30 0 0030 0L893.6 752a30 30 0 0015-25.8v-180a30 30 0 00-60 0v144l-165-96.6V421.4a15 15 0 00-7.2-13.2L527 322.4V132.2l321.6 185.4v79.8a30 30 0 0060 0v-97.2a30 30 0 00-15-28.2zM497 320l-141.6 84-165-94.8 306.6-177zm-321.6 12.6l165 97.8v163.2l-165 95.4zm15 379.8l165-92.4L497 701.6v190.2zm480-94.8l164.4 94.8L527 891.8V701.6zm-15-25.8l-143.4 84-141.6-82.2V430.4L512 348.2l141.6 81.6z"/></svg>