<svg xmlns="http://www.w3.org/2000/svg" width="200" height="200" viewBox="0 0 1024 1024"><path fill="#0FA1ED" d="M971.108 359.656v-53.031c0-58.437-47.44-105.876-105.876-105.876H158.768c-58.436 0-105.876 47.44-105.876 105.877v53.032h918.216z"/><path fill="#4EB7EE" d="M52.892 423.74v317.908c0 58.437 47.346 105.877 105.876 105.877h706.464c58.436 0 105.876-47.44 105.876-105.877V423.74H52.892zm829.954 300.385c0 9.694-7.828 17.428-17.428 17.428H759.075c-9.692 0-17.428-7.827-17.428-17.428v-71.018c0-9.693 7.829-17.428 17.428-17.428h106.343c9.694 0 17.428 7.829 17.428 17.428v71.02z"/></svg>