<svg xmlns="http://www.w3.org/2000/svg" width="200" height="200" viewBox="0 0 1024 1024"><path fill="#FFB819" d="M349.3 230.167c0-17.2-14-31.2-31.2-31.2H208.2c-17.2 0-31.2 14-31.2 31.2v369c0 17.2 14 31.2 31.2 31.2h109.9c17.2 0 31.2-14 31.2-31.2v-369z"/><path fill="#0071CE" d="M521.5 144.767c0-17.2-14-31.2-31.2-31.2H380.5c-17.2 0-31.2 14-31.2 31.2v369c0 17.2 14 31.2 31.2 31.2h109.9c17.2 0 31.2-14 31.2-31.2v-369z"/><path fill="#00B3E3" d="M421.1 196.567h28.7v265.4h-28.7z"/><path d="M177 275.667h344.5v63.6H177z"/><path fill="#00AD68" d="M635.6 135.667c-12.1-12.1-32-12.1-44.1 0l-60.8 60.8c-12.1 12.1-12.1 32 0 44.1l234 234.1c12.1 12.1 32 12.1 44.1 0l60.8-60.8c12.1-12.1 12.1-32 0-44.1l-234-234.1z"/><path fill="#FFF" d="M602.4000000000001 221.667a14.3 14.3 0 1028.6 0 14.3 14.3 0 10-28.6 0zM665.336 249.974L808.1 392.737l-20.294 20.294-142.763-142.764z"/><path d="M775.6 275.667H565.7l63.6 63.5h209.9z"/><path fill="#D1D3D3" d="M118.2 347.067h786.1v505.9H118.2z"/><path d="M118.2 564.867H201v39.9h-82.8zm130.8-116.3h82.8v39.9H249zm255.3-12.6h82.8v39.9h-82.8zm-127.8-64h82.8v39.9h-82.8zm444.9 120.9h82.8v39.9h-82.8zm-13.7 245h82.8v39.9h-82.8zm-174.1 37.3h82.8v39.9h-82.8zm-147.1-112.7h82.8v39.9h-82.8zm-334.1 108.8h82.8v39.9h-82.8z"/><path d="M118.2 347.067h786.1v74.7H118.2z"/><path fill="#333E48" d="M937.3 372.767c0 10.5-8.6 19.1-19.1 19.1h-814c-10.5 0-19.1-8.6-19.1-19.1v-45c0-10.5 8.6-19.1 19.1-19.1h813.9c10.5 0 19.1 8.6 19.1 19.1l.1 45zm-409.4 64.2h321.2v346.6H527.9z"/><path fill="#00AD68" d="M664.6 580.667c0 5.7-4.7 10.4-10.4 10.4h-75.8c-5.7 0-10.4-4.7-10.4-10.4v-96c0-5.7 4.7-10.4 10.4-10.4h75.8c5.7 0 10.4 4.7 10.4 10.4v96z"/><path fill="#FFF" d="M594.2 500.367h44.2v28.7h-44.2z"/><path fill="#0071CE" d="M809.1 580.667c0 5.7-4.7 10.4-10.4 10.4h-75.8c-5.7 0-10.4-4.7-10.4-10.4v-96c0-5.7 4.7-10.4 10.4-10.4h75.8c5.7 0 10.4 4.7 10.4 10.4v96z"/><path fill="#FFF" d="M738.7 500.367h44.2v28.7h-44.2z"/><path fill="#00B3E3" d="M664.6 735.867c0 5.7-4.7 10.4-10.4 10.4h-75.8c-5.7 0-10.4-4.7-10.4-10.4v-96.1c0-5.7 4.7-10.4 10.4-10.4h75.8c5.7 0 10.4 4.7 10.4 10.4v96.1z"/><path fill="#FFF" d="M594.2 655.567h44.2v28.7h-44.2z"/><path fill="#FFB819" d="M809.1 735.867c0 5.7-4.7 10.4-10.4 10.4h-75.8c-5.7 0-10.4-4.7-10.4-10.4v-96.1c0-5.7 4.7-10.4 10.4-10.4h75.8c5.7 0 10.4 4.7 10.4 10.4v96.1z"/><path fill="#FFF" d="M738.7 655.567h44.2v28.7h-44.2z"/><path fill="#D68231" d="M193.8 512.767h258.5v340.2H193.8z"/><path fill="#333E48" d="M239.4 561.667h167.3v120.2H239.4z"/><path fill="#FFF" d="M283.3 599.767h79.4v28.7h-79.4z"/><path fill="#333E48" d="M239.39999999999998 737.967a14.3 14.3 0 1028.6 0 14.3 14.3 0 10-28.6 0z"/><path fill="#A4A9AD" d="M959.2 858.467c0 4.2-3.5 7.7-7.7 7.7H70.9c-4.2 0-7.7-3.5-7.7-7.7v-27.6c0-4.2 3.5-7.7 7.7-7.7h880.6c4.2 0 7.7 3.5 7.7 7.7v27.6z"/></svg>