<svg xmlns="http://www.w3.org/2000/svg" width="200" height="200" viewBox="0 0 1024 1024"><path fill="#76F13F" d="M929.806 95.365l-2.329-18.846-18.712-3.227c-1.133-.195-28.199-4.784-68.274-4.784-46.64 0-116.015 6.361-181.662 36.66-50.29 23.21-94.664 77.606-131.89 161.675-5.988 13.528-11.286 26.705-15.912 39.04-7.655-25.301-17.434-48.75-29.235-70.016-22.144-39.908-51.41-72.167-86.98-95.881-86.955-57.97-171.072-70.138-226.328-70.138-40.482 0-66.471 6.588-67.558 6.87L83.513 81.21l-1.667 17.908c-.188 2.013-4.465 50.005 6.142 110.853 6.28 36.032 16.514 69.27 30.416 98.787 17.722 37.627 41.456 69.27 70.544 94.048 41.78 35.59 86.037 61.774 131.538 77.827 35.932 12.677 72.772 19.104 109.495 19.104 22.995 0 42.637-2.563 57.438-5.303v66.997h-247.68v303.895c0 47.02 38.252 85.275 85.275 85.275h388.783c47.021 0 85.275-38.255 85.275-85.275V561.429h-260.49V419.828c34.255 5.532 66.63 8.337 96.573 8.337 98.219 0 174.076-29.475 225.465-87.605 86.293-97.614 69.925-239.214 69.186-245.195z"/></svg>