<svg xmlns="http://www.w3.org/2000/svg" width="200" height="200" viewBox="0 0 1024 1024"><path fill="#009AFF" d="M257.613 307.94c4.049 15.274 5.488 30.155 10.53 48.048a980.762 980.762 0 0017.118 54.737 708.734 708.734 0 0021.6 55.224c8.088 18.194 13.825 33.198 23.227 49.094v393.493l-248.522 62.13V349.02l176.047-41.078zm134.616 289.943c19.447 21.166 41.596 40.25 59.997 57.492a3335.303 3335.303 0 0049.819 45.77c17.407 15.232 30.154 29.812 45.51 41.71 8.036-6.607 20.876-15.222 30.941-23.88a506.675 506.675 0 0030.175-27.813c11.36-11.277 17.314-27.627 32.08-41.514v321.008l-248.522-62.13V597.883zm559.175-311.522v622.175l-248.522 62.13V587.529c4.049-3.997 4.898-5.923 8.584-10.23a207.942 207.942 0 0111.556-12.427c13.441-14.549 25.847-31.997 37.217-52.21a521.048 521.048 0 0030.723-64.626 924.15 924.15 0 0024.169-68.634c7.041-22.905 13.244-44.257 18.608-64.15l117.665-28.89z"/><path fill="#FF2121" d="M326.122 282.825c0-3.252-.166-6.4-.507-9.392a88.785 88.785 0 01-.466-9.34c0-29.616 5.716-57.285 17.22-82.976a220.066 220.066 0 0146.733-67.691c19.685-19.458 42.621-34.731 68.882-45.936 26.219-11.193 54.447-16.816 84.611-16.816 30.175 0 58.362 5.623 84.664 16.816 26.177 11.194 49.197 26.478 68.882 45.936a222.044 222.044 0 0146.732 67.69c11.474 25.66 17.18 53.309 17.18 82.976v11.826c0 3.976-.311 7.942-.974 11.867-3.966 34.927-11.629 68.323-23.133 100.268a527.447 527.447 0 01-43.761 92.326 660.655 660.655 0 01-61.054 85.45 988.083 988.083 0 01-73.821 78.533c-4.577 4.598-9.475 6.918-14.756 6.918-5.24 0-10.169-2.32-14.756-6.918a840.16 840.16 0 01-74.795-79.05 648.747 648.747 0 01-61.023-86.91 542.638 542.638 0 01-43.719-94.284 425.367 425.367 0 01-22.139-101.293zm216.515-109.609c-13.151 0-25.246 2.32-36.398 6.907a87.614 87.614 0 00-29.046 19.291c-8.181 8.212-14.757 17.956-19.644 29.15s-7.352 23.02-7.352 35.56c0 12.529 2.464 24.365 7.352 35.559a93.993 93.993 0 0019.644 29.139 87.832 87.832 0 0029.046 19.25c11.152 4.598 23.257 6.917 36.398 6.917s25.442-2.32 36.905-6.917a86.434 86.434 0 0029.512-19.25 94.956 94.956 0 0019.685-29.14 87.003 87.003 0 007.352-35.559 87.822 87.822 0 00-7.352-35.559c-4.929-11.194-11.504-20.907-19.685-29.15s-18.038-14.694-29.512-19.291a98.373 98.373 0 00-36.905-6.907z"/></svg>